<svg width="258" height="46" viewBox="0 0 258 46" fill="none" xmlns="http://www.w3.org/2000/svg">
<path d="M24.5259 44.2132C25.2031 44.2132 25.7552 44.7619 25.7553 45.4364V45.5841C25.3397 45.7416 24.9179 45.88 24.4897 46V45.4364L3.43857 45.4714C3.08887 45.4714 2.80562 45.1897 2.80552 44.842C2.80563 44.4944 3.08888 44.2132 3.43857 44.2132H24.5259ZM24.5259 41.0674C26.4704 41.0674 28.1219 42.3276 28.7005 44.0693C28.3354 44.3083 27.9613 44.5343 27.5777 44.7471C27.261 43.3621 26.0137 42.3256 24.5259 42.3256H20.6924C20.3429 42.3255 20.0601 42.0442 20.0598 41.6968C20.0598 41.3491 20.3427 41.0675 20.6924 41.0674H24.5259ZM24.5259 37.9183C27.464 37.9183 30.0153 39.5923 31.2669 42.0311C30.9484 42.335 30.6209 42.6258 30.2841 42.9036C29.3045 40.71 27.0932 39.1766 24.5273 39.1765H0.143555V37.9183H9.75646V37.9634H18.2943C18.6639 37.9634 19.0221 37.9479 19.3689 37.9183H24.5259ZM16.1014 41.0674C16.4511 41.0675 16.7339 41.3491 16.7339 41.6968C16.7337 42.0431 16.4509 42.3256 16.1014 42.3256H0.143555V41.0674H16.1014ZM26.9331 34.6157C29.9632 34.6157 32.6262 36.2037 34.1258 38.5865C33.8698 38.9758 33.6028 39.3546 33.3238 39.7224C32.1165 37.4367 29.7046 35.8739 26.9331 35.8739H24.3604C24.8069 35.4942 25.2167 35.0749 25.5898 34.6157H26.9331ZM36.1923 34.6142C35.9266 35.2735 35.636 35.9098 35.3224 36.5243C35.0935 36.2171 34.8579 35.9259 34.6222 35.6633C34.4562 35.4784 34.4154 35.2132 34.5171 34.9864C34.6188 34.7608 34.8469 34.6154 35.0961 34.6142H36.1923ZM6.2974 31.0406C6.41436 30.7138 6.77459 30.5418 7.10559 30.6568C7.43426 30.7743 7.60884 31.1338 7.49304 31.4617C7.08713 32.599 6.49048 33.6703 5.73721 34.6157H9.75646V35.8739H4.30997C4.05155 35.8738 3.8199 35.7178 3.72276 35.4796C3.62569 35.2424 3.68565 34.9691 3.87041 34.7912C4.9559 33.7516 5.79439 32.4546 6.2974 31.0406ZM4.49235 3.14165C4.84211 3.14165 5.1254 3.42328 5.1254 3.77099L5.12395 27.1748C5.12388 30.6016 3.12772 33.6206 0.143555 35.0311V33.6074C2.39138 32.3087 3.85973 29.8928 3.85979 27.1748V3.77099C3.85979 3.42333 4.14266 3.14173 4.49235 3.14165ZM37.2847 31.3101C37.1741 31.7339 37.0541 32.1537 36.9223 32.5688H26.8954C27.097 32.1653 27.2792 31.7459 27.4412 31.3101H37.2847ZM7.8168 14.4723C8.16656 14.4723 8.44984 14.7539 8.44984 15.1016V25.0517C8.44994 26.485 8.93828 27.8062 9.75646 28.8623V30.6947C8.18062 29.3161 7.18436 27.2975 7.18424 25.0517V15.1016C7.18424 14.754 7.46712 14.4724 7.8168 14.4723ZM2.47839 2C2.04584 2.48619 1.80336 3.11762 1.80336 3.77099V25.0512C1.80332 26.825 1.1813 28.4568 0.143555 29.744V27.2276C0.3973 26.5494 0.536291 25.8162 0.536312 25.0512V3.77099C0.536312 3.151 0.685218 2.5444 0.961397 2H2.47839ZM37.9018 28.1634C37.8452 28.5867 37.7793 29.0061 37.7035 29.4216H33.512C33.1624 29.4216 32.8796 29.1403 32.8794 28.7928C32.8794 28.4451 33.1623 28.1634 33.512 28.1634H37.9018ZM28.288 28.1634C28.6377 28.1635 28.9205 28.4451 28.9205 28.7928C28.9203 29.1403 28.6376 29.4216 28.288 29.4216H27.9994C28.1034 29.0076 28.194 28.5882 28.2711 28.1634H28.288ZM38.1436 25.0153C38.134 25.4384 38.1152 25.8579 38.0881 26.2739H28.5224C28.5581 25.8591 28.5821 25.4396 28.5939 25.0153H38.1436ZM38.0538 21.8685C38.0874 22.2843 38.1133 22.7034 38.1296 23.1258H28.5712C28.5497 22.7018 28.5171 22.2828 28.4737 21.8685H38.0538ZM37.6225 18.7218C37.7041 19.1376 37.7758 19.5571 37.8386 19.98H28.1934C28.1444 19.7272 28.0914 19.4763 28.0337 19.2274C27.995 19.0567 27.9536 18.8881 27.9102 18.7218H37.6225ZM36.8017 15.5736C36.809 15.597 36.8172 15.6203 36.8244 15.6437C36.9519 16.0362 37.0694 16.4324 37.1785 16.8318H27.2747C27.0904 16.3936 26.8853 15.9743 26.6595 15.5736H36.8017ZM35.5511 12.4269C35.7525 12.8364 35.943 13.2554 36.1204 13.6851H31.1386C30.7889 13.6851 30.5056 13.4034 30.5055 13.0558C30.5056 12.7081 30.7887 12.427 31.1395 12.4269H35.5511ZM22.9539 2.46913C23.3934 2.56238 23.824 2.66945 24.2455 2.79052C24.267 3.16243 24.2793 3.53676 24.2793 3.91298V12.7085C23.8845 12.3859 23.4624 12.0931 23.0123 11.8306V3.91298C23.0123 3.42791 22.9918 2.94631 22.9539 2.46913ZM26.1746 3.46783C26.3966 3.56101 26.6159 3.6584 26.8322 3.76044C27.0398 3.85836 27.2438 3.96032 27.4455 4.06408V11.4824C27.4454 11.83 27.1626 12.1117 26.8129 12.1117C26.4632 12.1117 26.18 11.83 26.1799 11.4824V3.91298C26.1799 3.76436 26.1777 3.61587 26.1746 3.46783ZM19.7308 2.04461C20.1668 2.07028 20.5954 2.10694 21.0166 2.15542C21.0791 2.73418 21.1126 3.32064 21.1126 3.91298V11.0339C20.7085 10.9217 20.2865 10.8367 19.847 10.7773V3.91394C19.847 3.28279 19.8071 2.65876 19.7308 2.04461ZM17.808 2C17.8997 2.63374 17.9469 3.27422 17.9469 3.91298V10.6765H16.6804V3.91298C16.6804 3.27318 16.6289 2.63245 16.5274 2H17.808ZM14.6013 2C14.7194 2.62207 14.7817 3.26182 14.7817 3.91298V10.6765H13.5185V3.91298C13.5185 3.25954 13.4477 2.61911 13.3135 2H14.6013ZM11.356 2C11.5246 2.61203 11.6151 3.25407 11.6151 3.91298V10.6765H10.3485V3.91298C10.3485 3.24786 10.2377 2.60358 10.0339 2H11.356ZM7.97988 2C8.27913 2.57451 8.44984 3.22731 8.44984 3.91298V9.9076C8.44975 10.2552 8.1665 10.5369 7.8168 10.5369C7.46718 10.5368 7.18433 10.2552 7.18424 9.9076V3.91298C7.18424 3.18251 6.91076 2.5065 6.46483 2H7.97988ZM29.3451 5.18558C29.784 5.48168 30.2063 5.79394 30.6112 6.12385V9.27873H33.6186C33.9256 9.68486 34.2171 10.1041 34.4925 10.5369H29.9782C29.6285 10.5369 29.3452 10.2552 29.3451 9.9076V5.18558Z" fill="#DEF846"/>
<path d="M248.159 1H257.144V45H247.657V15.9563L237.039 30.6643H229.437L218.693 16.3907V45H209.144V1H218.191L233.269 21.2934L248.159 1Z" fill="url(#paint0_linear_11_217)"/>
<path d="M199.621 22.2459C201.419 23.2933 202.789 24.6339 203.731 26.2678C204.673 27.9016 205.144 29.7869 205.144 31.9235C205.144 33.9344 204.651 35.8197 203.666 37.5792C202.682 39.2969 201.29 40.826 199.492 42.1667C197.865 43.3816 196.003 44.3242 193.905 44.9945C191.85 45.6229 189.666 45.9581 187.355 46C185.043 46 182.838 45.6858 180.74 45.0574C178.642 44.429 176.78 43.4863 175.153 42.2295C172.712 40.4281 171.043 38.2495 170.144 35.694L179.134 31.6093C179.134 32.0282 179.284 32.5519 179.584 33.1803C179.884 33.8087 180.355 34.4162 180.997 35.0027C181.639 35.5893 182.474 36.092 183.501 36.5109C184.529 36.9299 185.792 37.1393 187.29 37.1393C188.489 37.1393 189.538 36.9927 190.437 36.6995C191.379 36.4062 192.15 36.0501 192.749 35.6311C193.391 35.1703 193.862 34.6676 194.162 34.123C194.504 33.5364 194.676 32.9499 194.676 32.3634C194.676 31.6931 194.44 31.0647 193.969 30.4781C193.541 29.8916 192.856 29.4308 191.914 29.0956C190.202 28.5091 188.382 28.0273 186.455 27.6503C184.572 27.2313 182.731 26.7286 180.933 26.1421C179.134 25.5137 177.465 24.6967 175.923 23.6913C174.382 22.6858 173.162 21.2823 172.263 19.4809C171.449 17.8889 171.043 16.1922 171.043 14.3907C171.043 12.3798 171.514 10.4317 172.455 8.54645C173.44 6.6612 174.767 5.06922 176.437 3.77049C178.021 2.55556 179.798 1.63388 181.767 1.00547C183.737 0.335156 185.813 0 187.997 0C190.18 0 192.257 0.314207 194.226 0.942622C196.238 1.57104 198.037 2.49272 199.621 3.70765C201.162 4.8388 202.382 6.15847 203.281 7.66667L195.96 12.5683C195.061 11.3534 193.926 10.3898 192.556 9.6776C191.229 8.9235 189.731 8.54645 188.061 8.54645C185.749 8.54645 183.951 9.04918 182.666 10.0546C181.425 11.0601 180.804 12.3798 180.804 14.0137C180.804 14.7678 181.147 15.4381 181.832 16.0246C182.559 16.6111 183.48 17.1348 184.593 17.5956C185.749 18.0565 187.033 18.4754 188.446 18.8525C189.859 19.1876 191.251 19.5437 192.621 19.9208C194.033 20.2559 195.361 20.612 196.602 20.9891C197.844 21.3661 198.85 21.7851 199.621 22.2459Z" fill="url(#paint1_linear_11_217)"/>
<path d="M166.144 1V8.94358H162.857V37.1185H166.144V45H150.144V37.1185H153.43V8.94358H150.144V1H166.144Z" fill="url(#paint2_linear_11_217)"/>
<path d="M129.751 36.4979H148.144V45H120.144V1H129.751V36.4979Z" fill="url(#paint3_linear_11_217)"/>
<path d="M84.1436 1H117.144V9.56417H105.5V45H95.7868V9.56417H84.1436V1Z" fill="url(#paint4_linear_11_217)"/>
<path d="M65.2617 19.9836H82.1436V36.3224C79.6239 39.5064 76.8312 41.9153 73.7656 43.5492C70.7 45.1831 67.4874 46 64.1278 46C61.1042 46 58.2485 45.3925 55.5609 44.1776C52.8732 42.9208 50.5425 41.245 48.5688 39.1503C46.595 37.0556 45.0202 34.6257 43.8443 31.8607C42.7105 29.0537 42.1436 26.0792 42.1436 22.9372C42.1436 19.7951 42.7105 16.8415 43.8443 14.0765C45.0202 11.3115 46.595 8.8816 48.5688 6.78689C50.5425 4.69217 52.8732 3.03734 55.5609 1.8224C58.2485 0.607468 61.1042 0 64.1278 0C66.9835 0 69.6711 0.52368 72.1908 1.57104C74.7525 2.6184 77.2302 4.35701 79.6239 6.78689L74.0806 13.5109C72.3168 11.877 70.658 10.7878 69.1042 10.2432C67.5504 9.65665 65.9126 9.36339 64.1908 9.36339C62.427 9.36339 60.7682 9.71949 59.2144 10.4317C57.7026 11.1439 56.3798 12.1075 55.2459 13.3224C54.1121 14.5373 53.2092 15.9827 52.5373 17.6585C51.9073 19.2923 51.5924 21.0519 51.5924 22.9372C51.5924 24.8224 51.9073 26.582 52.5373 28.2158C53.2092 29.8497 54.1121 31.2951 55.2459 32.5519C56.3798 33.7668 57.7026 34.7304 59.2144 35.4426C60.7682 36.1548 62.427 36.5109 64.1908 36.5109C65.7446 36.5109 67.2774 36.2386 68.7892 35.694C70.343 35.1075 71.8968 34.1648 73.4506 32.8661V28.0273H65.2617V19.9836Z" fill="url(#paint5_linear_11_217)"/>
<path d="M166.144 27V29H93.1436V27H166.144Z" fill="#DEF846"/>
<defs>
<linearGradient id="paint0_linear_11_217" x1="150.689" y1="-11.726" x2="150.689" y2="62.939" gradientUnits="userSpaceOnUse">
<stop stop-color="#DEF846"/>
</linearGradient>
<linearGradient id="paint1_linear_11_217" x1="149.196" y1="-12.258" x2="149.196" y2="63.3482" gradientUnits="userSpaceOnUse">
<stop stop-color="#DEF846"/>
</linearGradient>
<linearGradient id="paint2_linear_11_217" x1="149.92" y1="-11.726" x2="149.92" y2="62.939" gradientUnits="userSpaceOnUse">
<stop stop-color="#DEF846"/>
</linearGradient>
<linearGradient id="paint3_linear_11_217" x1="150.255" y1="-11.726" x2="150.255" y2="62.939" gradientUnits="userSpaceOnUse">
<stop stop-color="#DEF846"/>
</linearGradient>
<linearGradient id="paint4_linear_11_217" x1="150.979" y1="-11.726" x2="150.979" y2="62.939" gradientUnits="userSpaceOnUse">
<stop stop-color="#DEF846"/>
</linearGradient>
<linearGradient id="paint5_linear_11_217" x1="149.935" y1="-12.258" x2="149.935" y2="63.3482" gradientUnits="userSpaceOnUse">
<stop stop-color="#DEF846"/>
</linearGradient>
</defs>
</svg>
